<svg xmlns="http://www.w3.org/2000/svg" xmlns:xlink="http://www.w3.org/1999/xlink" width="500" zoomAndPan="magnify" viewBox="0 0 375 374.999991" height="500" preserveAspectRatio="xMidYMid meet" version="1.0"><defs><g/><clipPath id="id1"><path d="M 107 312 L 259 312 L 259 363 L 107 363 Z M 107 312 " clip-rule="nonzero"/></clipPath><clipPath id="id2"><path d="M 107.023438 319.0625 L 259.902344 312.972656 L 261.753906 359.4375 L 108.875 365.527344 Z M 107.023438 319.0625 " clip-rule="nonzero"/></clipPath><clipPath id="id3"><path d="M 105.824219 288.953125 L 258.703125 282.859375 L 261.746094 359.300781 L 108.867188 365.390625 Z M 105.824219 288.953125 " clip-rule="nonzero"/></clipPath><clipPath id="id4"><path d="M 109 12 L 261 12 L 261 67 L 109 67 Z M 109 12 " clip-rule="nonzero"/></clipPath><clipPath id="id5"><path d="M 113.808594 6.789062 L 266.257812 19.78125 L 262.308594 66.113281 L 109.859375 53.121094 Z M 113.808594 6.789062 " clip-rule="nonzero"/></clipPath><clipPath id="id6"><path d="M 107.320312 82.914062 L 259.769531 95.90625 L 266.265625 19.683594 L 113.816406 6.691406 Z M 107.320312 82.914062 " clip-rule="nonzero"/></clipPath><clipPath id="id7"><path d="M 35 54 L 328 54 L 328 316 L 35 316 Z M 35 54 " clip-rule="nonzero"/></clipPath><clipPath id="id8"><path d="M 49.625 54.519531 L 337.515625 76.796875 L 317.4375 336.269531 L 29.546875 313.992188 Z M 49.625 54.519531 " clip-rule="nonzero"/></clipPath><clipPath id="id9"><path d="M 51.191406 34.261719 L 339.082031 56.539062 L 317.441406 336.203125 L 29.550781 313.925781 Z M 51.191406 34.261719 " clip-rule="nonzero"/></clipPath></defs><g clip-path="url(#id1)"><g clip-path="url(#id2)"><g clip-path="url(#id3)"><path fill="#d46600" d="M 185.308594 362.34375 C 227.519531 360.664062 260.378906 325.078125 258.699219 282.859375 L 105.828125 288.949219 C 107.511719 331.167969 143.09375 364.027344 185.308594 362.34375 Z M 185.308594 362.34375 " fill-opacity="1" fill-rule="nonzero"/></g></g></g><g clip-path="url(#id4)"><g clip-path="url(#id5)"><g clip-path="url(#id6)"><path fill="#d46600" d="M 190.039062 13.1875 C 232.132812 16.773438 263.351562 53.808594 259.765625 95.90625 L 107.328125 82.914062 C 110.914062 40.816406 147.945312 9.597656 190.039062 13.1875 Z M 190.039062 13.1875 " fill-opacity="1" fill-rule="nonzero"/></g></g></g><g clip-path="url(#id7)"><g clip-path="url(#id8)"><g clip-path="url(#id9)"><path fill="#ffc240" d="M 290.539062 243.667969 L 294.9375 216.707031 L 223.367188 203.433594 L 327.714844 199.445312 L 326.351562 107.273438 L 314.238281 107.71875 L 318.359375 55.164062 L 67.472656 35.519531 L 61.621094 110.394531 L 121.769531 115.109375 L 74.585938 116.882812 L 75.445312 176 L 47.292969 170.820312 L 35.195312 244.980469 L 72.972656 252 L 51.871094 252.792969 L 52.785156 315.722656 L 304.550781 306.113281 L 303.640625 243.183594 Z M 290.539062 243.667969 " fill-opacity="1" fill-rule="nonzero"/></g></g></g><g fill="#472400" fill-opacity="1"><g transform="translate(120.597793, 173.941859)"><g><path d="M 10.453125 -65.046875 L 27.640625 -65.046875 C 32.835938 -65.046875 36.15625 -63.363281 37.59375 -60 C 39.03125 -56.644531 39.019531 -51.738281 37.5625 -45.28125 C 36.039062 -38.820312 33.914062 -33.953125 31.1875 -30.671875 C 28.46875 -27.390625 24.5625 -25.75 19.46875 -25.75 L 14.15625 -25.75 L 8.25 0 L -4.546875 0 Z M 17.640625 -37.484375 C 19.203125 -37.484375 20.410156 -37.769531 21.265625 -38.34375 C 22.128906 -38.925781 22.800781 -39.757812 23.28125 -40.84375 C 23.757812 -41.9375 24.253906 -43.488281 24.765625 -45.5 C 25.367188 -48.226562 25.503906 -50.195312 25.171875 -51.40625 C 24.847656 -52.625 23.773438 -53.234375 21.953125 -53.234375 L 20.515625 -53.234375 L 16.890625 -37.484375 Z M 17.640625 -37.484375 "/></g></g></g><g fill="#472400" fill-opacity="1"><g transform="translate(156.331592, 173.941859)"><g><path d="M -4.546875 0 L 10.453125 -65.046875 L 36.5 -65.046875 L 33.625 -52.46875 L 20.828125 -52.46875 L 17.875 -39.828125 L 30.140625 -39.828125 L 27.34375 -27.5625 L 15.078125 -27.5625 L 11.59375 -12.640625 L 25.21875 -12.640625 L 22.34375 0 Z M -4.546875 0 "/></g></g></g><g fill="#472400" fill-opacity="1"><g transform="translate(187.522972, 173.941859)"><g><path d="M 10.453125 -65.046875 L 27.640625 -65.046875 C 32.835938 -65.046875 36.15625 -63.363281 37.59375 -60 C 39.03125 -56.644531 39.019531 -51.738281 37.5625 -45.28125 C 36.039062 -38.820312 33.914062 -33.953125 31.1875 -30.671875 C 28.46875 -27.390625 24.5625 -25.75 19.46875 -25.75 L 14.15625 -25.75 L 8.25 0 L -4.546875 0 Z M 17.640625 -37.484375 C 19.203125 -37.484375 20.410156 -37.769531 21.265625 -38.34375 C 22.128906 -38.925781 22.800781 -39.757812 23.28125 -40.84375 C 23.757812 -41.9375 24.253906 -43.488281 24.765625 -45.5 C 25.367188 -48.226562 25.503906 -50.195312 25.171875 -51.40625 C 24.847656 -52.625 23.773438 -53.234375 21.953125 -53.234375 L 20.515625 -53.234375 L 16.890625 -37.484375 Z M 17.640625 -37.484375 "/></g></g></g><g fill="#472400" fill-opacity="1"><g transform="translate(223.256771, 173.941859)"><g><path d="M -5.140625 0 L 9.84375 -65.046875 L 22.421875 -65.046875 L 7.421875 0 Z M -5.140625 0 "/></g></g></g><g fill="#472400" fill-opacity="1"><g transform="translate(105.71448, 271.587673)"><g><path d="M 3.921875 -88.6875 L 27.984375 -88.6875 C 34.453125 -88.6875 39.148438 -87.101562 42.078125 -83.9375 C 45.003906 -80.769531 46.46875 -75.609375 46.46875 -68.453125 L 46.46875 -64.53125 C 46.46875 -56.0625 43.4375 -51.003906 37.375 -49.359375 C 41.09375 -48.390625 43.707031 -46.148438 45.21875 -42.640625 C 46.738281 -39.128906 47.5 -34.484375 47.5 -28.703125 C 47.5 -19.273438 46.085938 -12.132812 43.265625 -7.28125 C 40.441406 -2.425781 35.347656 0 27.984375 0 L 3.921875 0 Z M 24.890625 -55.34375 C 26.398438 -55.34375 27.429688 -55.910156 27.984375 -57.046875 C 28.535156 -58.179688 28.8125 -59.78125 28.8125 -61.84375 L 28.8125 -70.71875 C 28.8125 -73.613281 27.535156 -75.0625 24.984375 -75.0625 L 21.265625 -75.0625 L 21.265625 -55.34375 Z M 23.03125 -15.59375 C 27.632812 -15.59375 29.9375 -17.796875 29.9375 -22.203125 L 29.9375 -33.25 C 29.9375 -35.925781 29.539062 -37.953125 28.75 -39.328125 C 27.957031 -40.710938 26.566406 -41.40625 24.578125 -41.40625 L 21.265625 -41.40625 L 21.265625 -15.6875 Z M 23.03125 -15.59375 "/></g></g></g><g fill="#472400" fill-opacity="1"><g transform="translate(155.173817, 271.587673)"><g><path d="M 25.09375 0.828125 C 17.9375 0.828125 12.5 -1.351562 8.78125 -5.71875 C 5.0625 -10.09375 3.203125 -16.238281 3.203125 -24.15625 L 3.203125 -66.390625 C 3.203125 -74.023438 5.0625 -79.785156 8.78125 -83.671875 C 12.5 -87.566406 17.9375 -89.515625 25.09375 -89.515625 C 32.25 -89.515625 37.6875 -87.566406 41.40625 -83.671875 C 45.125 -79.785156 46.984375 -74.023438 46.984375 -66.390625 L 46.984375 -24.15625 C 46.984375 -16.175781 45.125 -10.015625 41.40625 -5.671875 C 37.6875 -1.335938 32.25 0.828125 25.09375 0.828125 Z M 25.09375 -15.484375 C 26.675781 -15.484375 27.738281 -16.171875 28.28125 -17.546875 C 28.832031 -18.929688 29.109375 -20.859375 29.109375 -23.328125 L 29.109375 -66.703125 C 29.109375 -68.628906 28.847656 -70.191406 28.328125 -71.390625 C 27.816406 -72.597656 26.769531 -73.203125 25.1875 -73.203125 C 22.226562 -73.203125 20.75 -70.96875 20.75 -66.5 L 20.75 -23.234375 C 20.75 -20.679688 21.054688 -18.75 21.671875 -17.4375 C 22.296875 -16.132812 23.4375 -15.484375 25.09375 -15.484375 Z M 25.09375 -15.484375 "/></g></g></g><g fill="#472400" fill-opacity="1"><g transform="translate(205.355938, 271.587673)"><g><path d="M 1.34375 0 L 10.84375 -47.078125 L 3.296875 -88.796875 L 20.65625 -88.796875 L 25.296875 -58.234375 L 29.328125 -88.796875 L 46.765625 -88.796875 L 39.125 -47.078125 L 48.625 0 L 30.671875 0 L 25.09375 -34.6875 L 19.40625 0 Z M 1.34375 0 "/></g></g></g><g fill="#472400" fill-opacity="1"><g transform="translate(139.570043, 300.331728)"><g><path d="M 3.609375 -9.765625 L 7.25 -9.765625 L 7.25 -7.359375 L 3.609375 -7.359375 L 3.609375 -2.40625 L 8.203125 -2.40625 L 8.203125 0 L 0.96875 0 L 0.96875 -16.875 L 8.203125 -16.875 L 8.203125 -14.46875 L 3.609375 -14.46875 Z M 3.609375 -9.765625 "/></g></g></g><g fill="#472400" fill-opacity="1"><g transform="translate(148.440021, 300.331728)"><g><path d="M 3.328125 -12.21875 L 3.328125 0 L 0.9375 0 L 0.9375 -16.875 L 4.265625 -16.875 L 6.984375 -6.78125 L 6.984375 -16.875 L 9.359375 -16.875 L 9.359375 0 L 6.625 0 Z M 3.328125 -12.21875 "/></g></g></g><g fill="#472400" fill-opacity="1"><g transform="translate(158.732084, 300.331728)"><g/></g></g><g fill="#472400" fill-opacity="1"><g transform="translate(162.468084, 300.331728)"><g><path d="M 4.875 -16.875 C 6.207031 -16.875 7.195312 -16.519531 7.84375 -15.8125 C 8.5 -15.101562 8.828125 -14.066406 8.828125 -12.703125 L 8.828125 -10.515625 C 8.828125 -9.148438 8.5 -8.113281 7.84375 -7.40625 C 7.195312 -6.695312 6.207031 -6.34375 4.875 -6.34375 L 3.609375 -6.34375 L 3.609375 0 L 0.96875 0 L 0.96875 -16.875 Z M 3.609375 -14.46875 L 3.609375 -8.75 L 4.875 -8.75 C 5.289062 -8.75 5.609375 -8.859375 5.828125 -9.078125 C 6.054688 -9.304688 6.171875 -9.726562 6.171875 -10.34375 L 6.171875 -12.875 C 6.171875 -13.488281 6.054688 -13.90625 5.828125 -14.125 C 5.609375 -14.351562 5.289062 -14.46875 4.875 -14.46875 Z M 3.609375 -14.46875 "/></g></g></g><g fill="#472400" fill-opacity="1"><g transform="translate(171.675494, 300.331728)"><g><path d="M 3.609375 -9.765625 L 7.25 -9.765625 L 7.25 -7.359375 L 3.609375 -7.359375 L 3.609375 -2.40625 L 8.203125 -2.40625 L 8.203125 0 L 0.96875 0 L 0.96875 -16.875 L 8.203125 -16.875 L 8.203125 -14.46875 L 3.609375 -14.46875 Z M 3.609375 -9.765625 "/></g></g></g><g fill="#472400" fill-opacity="1"><g transform="translate(180.545472, 300.331728)"><g><path d="M 4.875 -16.875 C 6.207031 -16.875 7.195312 -16.519531 7.84375 -15.8125 C 8.5 -15.101562 8.828125 -14.066406 8.828125 -12.703125 L 8.828125 -10.515625 C 8.828125 -9.148438 8.5 -8.113281 7.84375 -7.40625 C 7.195312 -6.695312 6.207031 -6.34375 4.875 -6.34375 L 3.609375 -6.34375 L 3.609375 0 L 0.96875 0 L 0.96875 -16.875 Z M 3.609375 -14.46875 L 3.609375 -8.75 L 4.875 -8.75 C 5.289062 -8.75 5.609375 -8.859375 5.828125 -9.078125 C 6.054688 -9.304688 6.171875 -9.726562 6.171875 -10.34375 L 6.171875 -12.875 C 6.171875 -13.488281 6.054688 -13.90625 5.828125 -14.125 C 5.609375 -14.351562 5.289062 -14.46875 4.875 -14.46875 Z M 3.609375 -14.46875 "/></g></g></g><g fill="#472400" fill-opacity="1"><g transform="translate(189.752882, 300.331728)"><g><path d="M 0.96875 -16.875 L 3.609375 -16.875 L 3.609375 0 L 0.96875 0 Z M 0.96875 -16.875 "/></g></g></g><g fill="#472400" fill-opacity="1"><g transform="translate(194.33248, 300.331728)"><g><path d="M 0.1875 -16.875 L 8.390625 -16.875 L 8.390625 -14.46875 L 5.625 -14.46875 L 5.625 0 L 2.96875 0 L 2.96875 -14.46875 L 0.1875 -14.46875 Z M 0.1875 -16.875 "/></g></g></g><g fill="#472400" fill-opacity="1"><g transform="translate(202.913223, 300.331728)"><g><path d="M 3.40625 -3.875 C 3.40625 -3.269531 3.523438 -2.84375 3.765625 -2.59375 C 4.015625 -2.34375 4.351562 -2.21875 4.78125 -2.21875 C 5.195312 -2.21875 5.523438 -2.34375 5.765625 -2.59375 C 6.015625 -2.84375 6.140625 -3.269531 6.140625 -3.875 L 6.140625 -13 C 6.140625 -13.601562 6.015625 -14.03125 5.765625 -14.28125 C 5.523438 -14.53125 5.195312 -14.65625 4.78125 -14.65625 C 4.351562 -14.65625 4.015625 -14.53125 3.765625 -14.28125 C 3.523438 -14.03125 3.40625 -13.601562 3.40625 -13 Z M 0.75 -12.828125 C 0.75 -14.191406 1.09375 -15.238281 1.78125 -15.96875 C 2.476562 -16.695312 3.476562 -17.0625 4.78125 -17.0625 C 6.070312 -17.0625 7.0625 -16.695312 7.75 -15.96875 C 8.445312 -15.238281 8.796875 -14.191406 8.796875 -12.828125 L 8.796875 -4.046875 C 8.796875 -2.679688 8.445312 -1.632812 7.75 -0.90625 C 7.0625 -0.175781 6.070312 0.1875 4.78125 0.1875 C 3.476562 0.1875 2.476562 -0.175781 1.78125 -0.90625 C 1.09375 -1.632812 0.75 -2.679688 0.75 -4.046875 Z M 0.75 -12.828125 "/></g></g></g><g fill="#472400" fill-opacity="1"><g transform="translate(212.458083, 300.331728)"><g><path d="M 0.625 -12.828125 C 0.625 -14.191406 0.945312 -15.238281 1.59375 -15.96875 C 2.25 -16.695312 3.226562 -17.0625 4.53125 -17.0625 C 5.832031 -17.0625 6.804688 -16.695312 7.453125 -15.96875 C 8.109375 -15.238281 8.4375 -14.191406 8.4375 -12.828125 L 8.4375 -12.296875 L 5.9375 -12.296875 L 5.9375 -13 C 5.9375 -13.601562 5.816406 -14.03125 5.578125 -14.28125 C 5.347656 -14.53125 5.023438 -14.65625 4.609375 -14.65625 C 4.191406 -14.65625 3.863281 -14.53125 3.625 -14.28125 C 3.394531 -14.03125 3.28125 -13.601562 3.28125 -13 C 3.28125 -12.414062 3.40625 -11.898438 3.65625 -11.453125 C 3.914062 -11.015625 4.238281 -10.597656 4.625 -10.203125 C 5.007812 -9.816406 5.421875 -9.425781 5.859375 -9.03125 C 6.304688 -8.632812 6.722656 -8.203125 7.109375 -7.734375 C 7.492188 -7.273438 7.816406 -6.742188 8.078125 -6.140625 C 8.335938 -5.546875 8.46875 -4.847656 8.46875 -4.046875 C 8.46875 -2.679688 8.132812 -1.632812 7.46875 -0.90625 C 6.800781 -0.175781 5.816406 0.1875 4.515625 0.1875 C 3.210938 0.1875 2.222656 -0.175781 1.546875 -0.90625 C 0.878906 -1.632812 0.546875 -2.679688 0.546875 -4.046875 L 0.546875 -5.09375 L 3.0625 -5.09375 L 3.0625 -3.875 C 3.0625 -3.269531 3.1875 -2.84375 3.4375 -2.59375 C 3.6875 -2.351562 4.019531 -2.234375 4.4375 -2.234375 C 4.851562 -2.234375 5.1875 -2.351562 5.4375 -2.59375 C 5.6875 -2.84375 5.8125 -3.269531 5.8125 -3.875 C 5.8125 -4.457031 5.679688 -4.96875 5.421875 -5.40625 C 5.160156 -5.851562 4.835938 -6.269531 4.453125 -6.65625 C 4.066406 -7.050781 3.65625 -7.445312 3.21875 -7.84375 C 2.78125 -8.238281 2.363281 -8.671875 1.96875 -9.140625 C 1.582031 -9.609375 1.257812 -10.140625 1 -10.734375 C 0.75 -11.328125 0.625 -12.023438 0.625 -12.828125 Z M 0.625 -12.828125 "/></g></g></g><g fill="#472400" fill-opacity="1"><g transform="translate(126.093562, 94.143323)"><g><path d="M 3.609375 -9.765625 L 7.25 -9.765625 L 7.25 -7.359375 L 3.609375 -7.359375 L 3.609375 -2.40625 L 8.203125 -2.40625 L 8.203125 0 L 0.96875 0 L 0.96875 -16.875 L 8.203125 -16.875 L 8.203125 -14.46875 L 3.609375 -14.46875 Z M 3.609375 -9.765625 "/></g></g></g><g fill="#472400" fill-opacity="1"><g transform="translate(134.96354, 94.143323)"><g><path d="M 0.625 -12.828125 C 0.625 -14.191406 0.945312 -15.238281 1.59375 -15.96875 C 2.25 -16.695312 3.226562 -17.0625 4.53125 -17.0625 C 5.832031 -17.0625 6.804688 -16.695312 7.453125 -15.96875 C 8.109375 -15.238281 8.4375 -14.191406 8.4375 -12.828125 L 8.4375 -12.296875 L 5.9375 -12.296875 L 5.9375 -13 C 5.9375 -13.601562 5.816406 -14.03125 5.578125 -14.28125 C 5.347656 -14.53125 5.023438 -14.65625 4.609375 -14.65625 C 4.191406 -14.65625 3.863281 -14.53125 3.625 -14.28125 C 3.394531 -14.03125 3.28125 -13.601562 3.28125 -13 C 3.28125 -12.414062 3.40625 -11.898438 3.65625 -11.453125 C 3.914062 -11.015625 4.238281 -10.597656 4.625 -10.203125 C 5.007812 -9.816406 5.421875 -9.425781 5.859375 -9.03125 C 6.304688 -8.632812 6.722656 -8.203125 7.109375 -7.734375 C 7.492188 -7.273438 7.816406 -6.742188 8.078125 -6.140625 C 8.335938 -5.546875 8.46875 -4.847656 8.46875 -4.046875 C 8.46875 -2.679688 8.132812 -1.632812 7.46875 -0.90625 C 6.800781 -0.175781 5.816406 0.1875 4.515625 0.1875 C 3.210938 0.1875 2.222656 -0.175781 1.546875 -0.90625 C 0.878906 -1.632812 0.546875 -2.679688 0.546875 -4.046875 L 0.546875 -5.09375 L 3.0625 -5.09375 L 3.0625 -3.875 C 3.0625 -3.269531 3.1875 -2.84375 3.4375 -2.59375 C 3.6875 -2.351562 4.019531 -2.234375 4.4375 -2.234375 C 4.851562 -2.234375 5.1875 -2.351562 5.4375 -2.59375 C 5.6875 -2.84375 5.8125 -3.269531 5.8125 -3.875 C 5.8125 -4.457031 5.679688 -4.96875 5.421875 -5.40625 C 5.160156 -5.851562 4.835938 -6.269531 4.453125 -6.65625 C 4.066406 -7.050781 3.65625 -7.445312 3.21875 -7.84375 C 2.78125 -8.238281 2.363281 -8.671875 1.96875 -9.140625 C 1.582031 -9.609375 1.257812 -10.140625 1 -10.734375 C 0.75 -11.328125 0.625 -12.023438 0.625 -12.828125 Z M 0.625 -12.828125 "/></g></g></g><g fill="#472400" fill-opacity="1"><g transform="translate(143.978127, 94.143323)"><g><path d="M 4.875 -16.875 C 6.207031 -16.875 7.195312 -16.519531 7.84375 -15.8125 C 8.5 -15.101562 8.828125 -14.066406 8.828125 -12.703125 L 8.828125 -10.515625 C 8.828125 -9.148438 8.5 -8.113281 7.84375 -7.40625 C 7.195312 -6.695312 6.207031 -6.34375 4.875 -6.34375 L 3.609375 -6.34375 L 3.609375 0 L 0.96875 0 L 0.96875 -16.875 Z M 3.609375 -14.46875 L 3.609375 -8.75 L 4.875 -8.75 C 5.289062 -8.75 5.609375 -8.859375 5.828125 -9.078125 C 6.054688 -9.304688 6.171875 -9.726562 6.171875 -10.34375 L 6.171875 -12.875 C 6.171875 -13.488281 6.054688 -13.90625 5.828125 -14.125 C 5.609375 -14.351562 5.289062 -14.46875 4.875 -14.46875 Z M 3.609375 -14.46875 "/></g></g></g><g fill="#472400" fill-opacity="1"><g transform="translate(153.185537, 94.143323)"><g><path d="M 3.609375 -9.765625 L 7.25 -9.765625 L 7.25 -7.359375 L 3.609375 -7.359375 L 3.609375 -2.40625 L 8.203125 -2.40625 L 8.203125 0 L 0.96875 0 L 0.96875 -16.875 L 8.203125 -16.875 L 8.203125 -14.46875 L 3.609375 -14.46875 Z M 3.609375 -9.765625 "/></g></g></g><g fill="#472400" fill-opacity="1"><g transform="translate(162.055515, 94.143323)"><g><path d="M 8.65625 -6.296875 L 8.65625 -4.046875 C 8.65625 -2.679688 8.320312 -1.632812 7.65625 -0.90625 C 6.988281 -0.175781 6.003906 0.1875 4.703125 0.1875 C 3.398438 0.1875 2.414062 -0.175781 1.75 -0.90625 C 1.082031 -1.632812 0.75 -2.679688 0.75 -4.046875 L 0.75 -12.828125 C 0.75 -14.191406 1.082031 -15.238281 1.75 -15.96875 C 2.414062 -16.695312 3.398438 -17.0625 4.703125 -17.0625 C 6.003906 -17.0625 6.988281 -16.695312 7.65625 -15.96875 C 8.320312 -15.238281 8.65625 -14.191406 8.65625 -12.828125 L 8.65625 -11.1875 L 6.140625 -11.1875 L 6.140625 -13 C 6.140625 -13.601562 6.015625 -14.03125 5.765625 -14.28125 C 5.523438 -14.53125 5.195312 -14.65625 4.78125 -14.65625 C 4.351562 -14.65625 4.015625 -14.53125 3.765625 -14.28125 C 3.523438 -14.03125 3.40625 -13.601562 3.40625 -13 L 3.40625 -3.875 C 3.40625 -3.269531 3.523438 -2.84375 3.765625 -2.59375 C 4.015625 -2.351562 4.351562 -2.234375 4.78125 -2.234375 C 5.195312 -2.234375 5.523438 -2.351562 5.765625 -2.59375 C 6.015625 -2.84375 6.140625 -3.269531 6.140625 -3.875 L 6.140625 -6.296875 Z M 8.65625 -6.296875 "/></g></g></g><g fill="#472400" fill-opacity="1"><g transform="translate(171.359354, 94.143323)"><g><path d="M 0.96875 -16.875 L 3.609375 -16.875 L 3.609375 0 L 0.96875 0 Z M 0.96875 -16.875 "/></g></g></g><g fill="#472400" fill-opacity="1"><g transform="translate(175.938952, 94.143323)"><g><path d="M 9.546875 0 L 6.875 0 L 6.40625 -3.0625 L 3.15625 -3.0625 L 2.703125 0 L 0.265625 0 L 2.96875 -16.875 L 6.84375 -16.875 Z M 3.5 -5.359375 L 6.046875 -5.359375 L 4.78125 -13.890625 Z M 3.5 -5.359375 "/></g></g></g><g fill="#472400" fill-opacity="1"><g transform="translate(185.748957, 94.143323)"><g><path d="M 0.96875 -16.875 L 3.609375 -16.875 L 3.609375 -2.40625 L 7.984375 -2.40625 L 7.984375 0 L 0.96875 0 Z M 0.96875 -16.875 "/></g></g></g><g fill="#472400" fill-opacity="1"><g transform="translate(193.919946, 94.143323)"><g><path d="M 0.96875 -16.875 L 3.609375 -16.875 L 3.609375 0 L 0.96875 0 Z M 0.96875 -16.875 "/></g></g></g><g fill="#472400" fill-opacity="1"><g transform="translate(198.499543, 94.143323)"><g><path d="M 0.625 -12.828125 C 0.625 -14.191406 0.945312 -15.238281 1.59375 -15.96875 C 2.25 -16.695312 3.226562 -17.0625 4.53125 -17.0625 C 5.832031 -17.0625 6.804688 -16.695312 7.453125 -15.96875 C 8.109375 -15.238281 8.4375 -14.191406 8.4375 -12.828125 L 8.4375 -12.296875 L 5.9375 -12.296875 L 5.9375 -13 C 5.9375 -13.601562 5.816406 -14.03125 5.578125 -14.28125 C 5.347656 -14.53125 5.023438 -14.65625 4.609375 -14.65625 C 4.191406 -14.65625 3.863281 -14.53125 3.625 -14.28125 C 3.394531 -14.03125 3.28125 -13.601562 3.28125 -13 C 3.28125 -12.414062 3.40625 -11.898438 3.65625 -11.453125 C 3.914062 -11.015625 4.238281 -10.597656 4.625 -10.203125 C 5.007812 -9.816406 5.421875 -9.425781 5.859375 -9.03125 C 6.304688 -8.632812 6.722656 -8.203125 7.109375 -7.734375 C 7.492188 -7.273438 7.816406 -6.742188 8.078125 -6.140625 C 8.335938 -5.546875 8.46875 -4.847656 8.46875 -4.046875 C 8.46875 -2.679688 8.132812 -1.632812 7.46875 -0.90625 C 6.800781 -0.175781 5.816406 0.1875 4.515625 0.1875 C 3.210938 0.1875 2.222656 -0.175781 1.546875 -0.90625 C 0.878906 -1.632812 0.546875 -2.679688 0.546875 -4.046875 L 0.546875 -5.09375 L 3.0625 -5.09375 L 3.0625 -3.875 C 3.0625 -3.269531 3.1875 -2.84375 3.4375 -2.59375 C 3.6875 -2.351562 4.019531 -2.234375 4.4375 -2.234375 C 4.851562 -2.234375 5.1875 -2.351562 5.4375 -2.59375 C 5.6875 -2.84375 5.8125 -3.269531 5.8125 -3.875 C 5.8125 -4.457031 5.679688 -4.96875 5.421875 -5.40625 C 5.160156 -5.851562 4.835938 -6.269531 4.453125 -6.65625 C 4.066406 -7.050781 3.65625 -7.445312 3.21875 -7.84375 C 2.78125 -8.238281 2.363281 -8.671875 1.96875 -9.140625 C 1.582031 -9.609375 1.257812 -10.140625 1 -10.734375 C 0.75 -11.328125 0.625 -12.023438 0.625 -12.828125 Z M 0.625 -12.828125 "/></g></g></g><g fill="#472400" fill-opacity="1"><g transform="translate(207.51413, 94.143323)"><g><path d="M 0.1875 -16.875 L 8.390625 -16.875 L 8.390625 -14.46875 L 5.625 -14.46875 L 5.625 0 L 2.96875 0 L 2.96875 -14.46875 L 0.1875 -14.46875 Z M 0.1875 -16.875 "/></g></g></g><g fill="#472400" fill-opacity="1"><g transform="translate(216.094873, 94.143323)"><g><path d="M 9.546875 0 L 6.875 0 L 6.40625 -3.0625 L 3.15625 -3.0625 L 2.703125 0 L 0.265625 0 L 2.96875 -16.875 L 6.84375 -16.875 Z M 3.5 -5.359375 L 6.046875 -5.359375 L 4.78125 -13.890625 Z M 3.5 -5.359375 "/></g></g></g><g fill="#472400" fill-opacity="1"><g transform="translate(225.904878, 94.143323)"><g><path d="M 0.625 -12.828125 C 0.625 -14.191406 0.945312 -15.238281 1.59375 -15.96875 C 2.25 -16.695312 3.226562 -17.0625 4.53125 -17.0625 C 5.832031 -17.0625 6.804688 -16.695312 7.453125 -15.96875 C 8.109375 -15.238281 8.4375 -14.191406 8.4375 -12.828125 L 8.4375 -12.296875 L 5.9375 -12.296875 L 5.9375 -13 C 5.9375 -13.601562 5.816406 -14.03125 5.578125 -14.28125 C 5.347656 -14.53125 5.023438 -14.65625 4.609375 -14.65625 C 4.191406 -14.65625 3.863281 -14.53125 3.625 -14.28125 C 3.394531 -14.03125 3.28125 -13.601562 3.28125 -13 C 3.28125 -12.414062 3.40625 -11.898438 3.65625 -11.453125 C 3.914062 -11.015625 4.238281 -10.597656 4.625 -10.203125 C 5.007812 -9.816406 5.421875 -9.425781 5.859375 -9.03125 C 6.304688 -8.632812 6.722656 -8.203125 7.109375 -7.734375 C 7.492188 -7.273438 7.816406 -6.742188 8.078125 -6.140625 C 8.335938 -5.546875 8.46875 -4.847656 8.46875 -4.046875 C 8.46875 -2.679688 8.132812 -1.632812 7.46875 -0.90625 C 6.800781 -0.175781 5.816406 0.1875 4.515625 0.1875 C 3.210938 0.1875 2.222656 -0.175781 1.546875 -0.90625 C 0.878906 -1.632812 0.546875 -2.679688 0.546875 -4.046875 L 0.546875 -5.09375 L 3.0625 -5.09375 L 3.0625 -3.875 C 3.0625 -3.269531 3.1875 -2.84375 3.4375 -2.59375 C 3.6875 -2.351562 4.019531 -2.234375 4.4375 -2.234375 C 4.851562 -2.234375 5.1875 -2.351562 5.4375 -2.59375 C 5.6875 -2.84375 5.8125 -3.269531 5.8125 -3.875 C 5.8125 -4.457031 5.679688 -4.96875 5.421875 -5.40625 C 5.160156 -5.851562 4.835938 -6.269531 4.453125 -6.65625 C 4.066406 -7.050781 3.65625 -7.445312 3.21875 -7.84375 C 2.78125 -8.238281 2.363281 -8.671875 1.96875 -9.140625 C 1.582031 -9.609375 1.257812 -10.140625 1 -10.734375 C 0.75 -11.328125 0.625 -12.023438 0.625 -12.828125 Z M 0.625 -12.828125 "/></g></g></g></svg>